<svg xmlns="http://www.w3.org/2000/svg" viewBox="0 0 100 100" width="100" height="100">
  <g fill="none" stroke="#777" stroke-width="2">
    <circle cx="50" cy="50" r="38"/>
    <circle cx="50" cy="50" r="26"/>
    <line x1="50" y1="5" x2="50" y2="12"/>
    <line x1="50" y1="88" x2="50" y2="95"/>
    <line x1="5" y1="50" x2="12" y2="50"/>
    <line x1="88" y1="50" x2="95" y2="50"/>
  </g>
  <g fill="#777" stroke="none">
    <circle cx="50" cy="42" r="7"/>
    <path d="M38 62 C38 53 62 53 62 62 L62 65 L38 65Z"/>
    <circle cx="32" cy="44" r="4.5"/>
    <path d="M24 57 C24 51 40 51 40 57"/>
    <circle cx="68" cy="44" r="4.5"/>
    <path d="M60 57 C60 51 76 51 76 57"/>
  </g>
</svg>
