<svg xmlns="http://www.w3.org/2000/svg" viewBox="0 0 100 100" width="100" height="100">
  <g fill="none" stroke="#777" stroke-width="2.5" stroke-linecap="round">
    <path d="M30 5 C30 5 42 18 45 32 C48 46 58 60 58 74 C58 82 52 90 45 88 C38 86 35 78 38 70"/>
    <path d="M58 5 C58 5 46 18 43 32 C40 46 30 60 30 74 C30 82 36 90 43 88 C50 86 53 78 50 70"/>
    <line x1="33" y1="18" x2="55" y2="18"/>
    <line x1="31" y1="32" x2="57" y2="32"/>
    <line x1="31" y1="46" x2="57" y2="46"/>
    <line x1="31" y1="60" x2="57" y2="60"/>
    <line x1="33" y1="74" x2="55" y2="74"/>
  </g>
</svg>
